<svg width="28" height="30" viewBox="0 0 28 30" fill="none" xmlns="http://www.w3.org/2000/svg">
<path d="M25.25 3.75H23.3751V1.87497C23.375 0.840002 22.535 0 21.5 0H2.75003C1.715 0 0.875 0.840002 0.875 1.87497V24.375C0.875 25.41 1.715 26.2499 2.74997 26.2499H4.62494V28.1249C4.62494 29.1599 5.46494 29.9999 6.49991 29.9999H25.2499C26.2849 29.9999 27.1249 29.1599 27.1249 28.1249V5.62497C27.125 4.59 26.285 3.75 25.25 3.75ZM2.75003 24.375V1.87497H21.5V24.375H2.75003ZM25.25 28.125H6.50003V26.25H21.5C22.5351 26.25 23.375 25.41 23.375 24.375V5.62497H25.25V28.125H25.25Z" fill="#135CA9"/>
<path d="M18.6875 5.625H9.31252C8.79503 5.625 8.375 6.04497 8.375 6.56251C8.375 7.08006 8.79497 7.50003 9.31252 7.50003H18.6875C19.2031 7.50003 19.625 7.08006 19.625 6.56251C19.625 6.04497 19.2031 5.625 18.6875 5.625Z" fill="#135CA9"/>
<path d="M18.6875 11.25H5.56252C5.04503 11.25 4.625 11.67 4.625 12.1875C4.625 12.7051 5.04497 13.125 5.56252 13.125H18.6875C19.2031 13.125 19.625 12.7051 19.625 12.1875C19.625 11.67 19.2031 11.25 18.6875 11.25Z" fill="#135CA9"/>
<path d="M18.6875 15H5.56252C5.04503 15 4.625 15.42 4.625 15.9375C4.625 16.4532 5.04497 16.875 5.56252 16.875H18.6875C19.2031 16.875 19.625 16.4532 19.625 15.9375C19.625 15.42 19.2031 15 18.6875 15Z" fill="#135CA9"/>
<path d="M18.6875 18.75H5.56252C5.04503 18.75 4.625 19.1719 4.625 19.6875C4.625 20.2032 5.04497 20.625 5.56252 20.625H18.6875C19.2031 20.625 19.625 20.2032 19.625 19.6875C19.625 19.1719 19.2031 18.75 18.6875 18.75Z" fill="#135CA9"/>
</svg>
